<svg version="1.1" xmlns="http://www.w3.org/2000/svg" xmlns:xlink="http://www.w3.org/1999/xlink" x="0px" y="0px" viewBox="0 0 48 48" xml:space="preserve" width="48" height="48"><g class="nc-icon-wrapper" fill="#444444"><path data-color="color-2" fill="#444444" d="M2,35c-0.552,0-1,0.448-1,1v10c0,0.552,0.448,1,1,1h44c0.552,0,1-0.448,1-1V36 c0-0.552-0.448-1-1-1s-1,0.448-1,1v9H3v-9C3,35.448,2.552,35,2,35z"></path> <path fill="#444444" d="M24.786,1.382c-0.379-0.482-1.193-0.482-1.572,0l-11,14c-0.237,0.301-0.281,0.71-0.113,1.055 S12.617,17,13,17h9v21c0,0.552,0.448,1,1,1h2c0.552,0,1-0.448,1-1V17h9c0.383,0,0.732-0.219,0.899-0.563s0.124-0.754-0.113-1.055 L24.786,1.382z"></path></g></svg>